KarlaLatin-Bold.ufo
<glyph name="ampersand" format="2">
  <advance width="1018"/>
  <unicode hex="0026"/>
  <outline>
    <contour>
      <point x="391" y="283" type="line"/>
      <point x="304" y="277"/>
      <point x="272" y="247"/>
      <point x="272" y="207" type="curve" smooth="yes"/>
      <point x="272" y="163"/>
      <point x="318" y="130"/>
      <point x="388" y="130" type="curve" smooth="yes"/>
      <point x="521" y="130"/>
      <point x="625" y="236"/>
      <point x="700" y="396" type="curve"/>
      <point x="804" y="338" type="line"/>
      <point x="724" y="114"/>
      <point x="569" y="-16"/>
      <point x="386" y="-16" type="curve" smooth="yes"/>
      <point x="231" y="-16"/>
      <point x="96" y="75"/>
      <point x="96" y="197" type="curve" smooth="yes"/>
      <point x="96" y="300"/>
      <point x="188" y="354"/>
      <point x="333" y="366" type="curve"/>
    </contour>
    <contour>
      <point x="956" y="190" type="line"/>
      <point x="956" y="66"/>
      <point x="897" y="-16"/>
      <point x="780" y="-16" type="curve" smooth="yes"/>
      <point x="700" y="-16"/>
      <point x="637" y="19"/>
      <point x="561" y="90" type="curve" smooth="yes"/>
      <point x="256" y="375" type="line" smooth="yes"/>
      <point x="220" y="409"/>
      <point x="190" y="460"/>
      <point x="190" y="514" type="curve" smooth="yes"/>
      <point x="190" y="605"/>
      <point x="273" y="683"/>
      <point x="434" y="683" type="curve" smooth="yes"/>
      <point x="594" y="683"/>
      <point x="678" y="605"/>
      <point x="678" y="515" type="curve" smooth="yes"/>
      <point x="678" y="412"/>
      <point x="597" y="349"/>
      <point x="463" y="313" type="curve"/>
      <point x="380" y="390" type="line"/>
      <point x="448" y="409"/>
      <point x="502" y="437"/>
      <point x="502" y="490" type="curve" smooth="yes"/>
      <point x="502" y="521"/>
      <point x="473" y="544"/>
      <point x="434" y="544" type="curve" smooth="yes"/>
      <point x="391" y="544"/>
      <point x="366" y="521"/>
      <point x="366" y="490" type="curve" smooth="yes"/>
      <point x="366" y="465"/>
      <point x="380" y="445"/>
      <point x="403" y="423" type="curve" smooth="yes"/>
      <point x="691" y="156" type="line" smooth="yes"/>
      <point x="712" y="136"/>
      <point x="731" y="124"/>
      <point x="762" y="124" type="curve" smooth="yes"/>
      <point x="791" y="124"/>
      <point x="815" y="146"/>
      <point x="815" y="190" type="curve"/>
    </contour>
  </outline>
</glyph>
<glyph name="quotesingle" format="2">
  <advance width="226"/>
  <unicode hex="0027"/>
  <outline>
    <contour>
      <point x="34" y="677" type="line"/>
      <point x="55" y="420" type="line"/>
      <point x="171" y="420" type="line"/>
      <point x="192" y="677" type="line"/>
    </contour>
  </outline>
</glyph>
<glyph name="parenright" format="2">
  <advance width="446"/>
  <unicode hex="0029"/>
  <outline>
    <contour>
      <point x="152" y="782" type="line"/>
      <point x="309" y="648"/>
      <point x="373" y="502"/>
      <point x="373" y="330" type="curve" smooth="yes"/>
      <point x="373" y="159"/>
      <point x="309" y="13"/>
      <point x="152" y="-122" type="curve"/>
      <point x="36" y="-35" type="line"/>
      <point x="153" y="89"/>
      <point x="209" y="192"/>
      <point x="209" y="330" type="curve" smooth="yes"/>
      <point x="209" y="469"/>
      <point x="153" y="572"/>
      <point x="36" y="696" type="curve"/>
    </contour>
  </outline>
</glyph>
<glyph name="hyphen" format="2">
  <advance width="400"/>
  <unicode hex="002D"/>
  <outline>
    <contour>
      <point x="55" y="242" type="line"/>
      <point x="345" y="242" type="line"/>
      <point x="345" y="382" type="line"/>
      <point x="55" y="382" type="line"/>
    </contour>
  </outline>
</glyph>
<glyph name="period" format="2">
  <advance width="253"/>
  <unicode hex="002E"/>
  <outline>
    <contour>
      <point x="18" y="94" type="curve" smooth="yes"/>
      <point x="18" y="34"/>
      <point x="62" y="-9"/>
      <point x="125" y="-9" type="curve" smooth="yes"/>
      <point x="188" y="-9"/>
      <point x="234" y="34"/>
      <point x="234" y="94" type="curve" smooth="yes"/>
      <point x="234" y="152"/>
      <point x="188" y="196"/>
      <point x="125" y="196" type="curve" smooth="yes"/>
      <point x="62" y="196"/>
      <point x="18" y="152"/>
    </contour>
  </outline>
</glyph>
<glyph name="two" format="2">
  <advance width="632"/>
  <unicode hex="0032"/>
  <outline>
    <contour>
      <point x="215" y="153" type="line"/>
      <point x="215" y="175"/>
      <point x="227" y="187"/>
      <point x="266" y="202" type="curve" smooth="yes"/>
      <point x="409" y="255" type="line" smooth="yes"/>
      <point x="544" y="306"/>
      <point x="595" y="372"/>
      <point x="595" y="475" type="curve" smooth="yes"/>
      <point x="595" y="603"/>
      <point x="479" y="686"/>
      <point x="338" y="686" type="curve" smooth="yes"/>
      <point x="191" y="686"/>
      <point x="66" y="617"/>
      <point x="66" y="459" type="curve"/>
      <point x="244" y="459" type="line"/>
      <point x="249" y="516"/>
      <point x="290" y="547"/>
      <point x="341" y="547" type="curve" smooth="yes"/>
      <point x="396" y="547"/>
      <point x="423" y="515"/>
      <point x="423" y="479" type="curve" smooth="yes"/>
      <point x="423" y="440"/>
      <point x="402" y="414"/>
      <point x="351" y="395" type="curve" smooth="yes"/>
      <point x="208" y="341" type="line" smooth="yes"/>
      <point x="97" y="300"/>
      <point x="55" y="239"/>
      <point x="55" y="130" type="curve" smooth="yes"/>
      <point x="55" y="0" type="line"/>
      <point x="593" y="0" type="line"/>
      <point x="593" y="146" type="line"/>
      <point x="215" y="146" type="line"/>
    </contour>
  </outline>
</glyph>
<glyph name="three" format="2">
  <advance width="655"/>
  <unicode hex="0033"/>
  <outline>
    <contour>
      <point x="322" y="686" type="line"/>
      <point x="166" y="686"/>
      <point x="56" y="617"/>
      <point x="44" y="468" type="curve"/>
      <point x="214" y="468" type="line"/>
      <point x="222" y="520"/>
      <point x="273" y="541"/>
      <point x="329" y="541" type="curve" smooth="yes"/>
      <point x="395" y="541"/>
      <point x="423" y="513"/>
      <point x="423" y="473" type="curve" smooth="yes"/>
      <point x="423" y="430"/>
      <point x="390" y="401"/>
      <point x="337" y="401" type="curve" smooth="yes"/>
      <point x="237" y="401" type="line"/>
      <point x="237" y="275" type="line"/>
      <point x="340" y="275" type="line" smooth="yes"/>
      <point x="405" y="275"/>
      <point x="442" y="254"/>
      <point x="442" y="208" type="curve" smooth="yes"/>
      <point x="442" y="163"/>
      <point x="399" y="130"/>
      <point x="330" y="130" type="curve" smooth="yes"/>
      <point x="256" y="130"/>
      <point x="213" y="168"/>
      <point x="207" y="217" type="curve"/>
      <point x="36" y="217" type="line"/>
      <point x="36" y="64"/>
      <point x="182" y="-16"/>
      <point x="330" y="-16" type="curve" smooth="yes"/>
      <point x="498" y="-16"/>
      <point x="615" y="69"/>
      <point x="615" y="191" type="curve" smooth="yes"/>
      <point x="615" y="267"/>
      <point x="567" y="320"/>
      <point x="491" y="351" type="curve"/>
      <point x="560" y="375"/>
      <point x="595" y="428"/>
      <point x="595" y="495" type="curve" smooth="yes"/>
      <point x="595" y="610"/>
      <point x="479" y="686"/>
      <point x="322" y="686" type="curve" smooth="yes"/>
    </contour>
  </outline>
</glyph>
<glyph name="six" format="2">
  <advance width="643"/>
  <unicode hex="0036"/>
  <outline>
    <contour>
      <point x="426" y="473" type="line"/>
      <point x="422" y="515"/>
      <point x="396" y="541"/>
      <point x="351" y="541" type="curve" smooth="yes"/>
      <point x="260" y="541"/>
      <point x="202" y="453"/>
      <point x="202" y="316" type="curve" smooth="yes"/>
      <point x="202" y="301"/>
      <point x="203" y="287"/>
      <point x="204" y="273" type="curve"/>
      <point x="228" y="386"/>
      <point x="307" y="419"/>
      <point x="388" y="419" type="curve" smooth="yes"/>
      <point x="519" y="419"/>
      <point x="603" y="328"/>
      <point x="603" y="203" type="curve" smooth="yes"/>
      <point x="603" y="73"/>
      <point x="497" y="-17"/>
      <point x="345" y="-17" type="curve" smooth="yes"/>
      <point x="168" y="-17"/>
      <point x="43" y="123"/>
      <point x="43" y="324" type="curve" smooth="yes"/>
      <point x="43" y="560"/>
      <point x="169" y="686"/>
      <point x="345" y="686" type="curve" smooth="yes"/>
      <point x="491" y="686"/>
      <point x="594" y="601"/>
      <point x="594" y="473" type="curve"/>
    </contour>
    <contour>
      <point x="344" y="292" type="line"/>
      <point x="296" y="292"/>
      <point x="252" y="262"/>
      <point x="252" y="211" type="curve" smooth="yes"/>
      <point x="252" y="163"/>
      <point x="296" y="130"/>
      <point x="345" y="130" type="curve" smooth="yes"/>
      <point x="394" y="130"/>
      <point x="439" y="163"/>
      <point x="439" y="211" type="curve" smooth="yes"/>
      <point x="439" y="262"/>
      <point x="394" y="292"/>
      <point x="344" y="292" type="curve" smooth="yes"/>
    </contour>
  </outline>
</glyph>
<glyph name="eight" format="2">
  <advance width="680"/>
  <unicode hex="0038"/>
  <outline>
    <contour>
      <point x="340" y="686" type="line"/>
      <point x="164" y="686"/>
      <point x="66" y="618"/>
      <point x="66" y="498" type="curve" smooth="yes"/>
      <point x="66" y="396"/>
      <point x="157" y="334"/>
      <point x="228" y="306" type="curve" smooth="yes"/>
      <point x="425" y="230" type="line" smooth="yes"/>
      <point x="457" y="217"/>
      <point x="474" y="199"/>
      <point x="474" y="179" type="curve" smooth="yes"/>
      <point x="474" y="151"/>
      <point x="439" y="130"/>
      <point x="340" y="130" type="curve" smooth="yes"/>
      <point x="270" y="130"/>
      <point x="207" y="158"/>
      <point x="207" y="200" type="curve" smooth="yes"/>
      <point x="207" y="239"/>
      <point x="262" y="267"/>
      <point x="332" y="267" type="curve"/>
      <point x="332" y="301" type="line"/>
      <point x="288" y="313"/>
      <point x="262" y="321"/>
      <point x="226" y="321" type="curve" smooth="yes"/>
      <point x="123" y="321"/>
      <point x="43" y="271"/>
      <point x="43" y="181" type="curve" smooth="yes"/>
      <point x="43" y="70"/>
      <point x="152" y="-16"/>
      <point x="340" y="-16" type="curve" smooth="yes"/>
      <point x="530" y="-16"/>
      <point x="638" y="70"/>
      <point x="638" y="187" type="curve" smooth="yes"/>
      <point x="638" y="279"/>
      <point x="582" y="321"/>
      <point x="484" y="360" type="curve" smooth="yes"/>
      <point x="275" y="442" type="line" smooth="yes"/>
      <point x="243" y="456"/>
      <point x="230" y="470"/>
      <point x="230" y="490" type="curve" smooth="yes"/>
      <point x="230" y="521"/>
      <point x="279" y="541"/>
      <point x="340" y="541" type="curve" smooth="yes"/>
      <point x="405" y="541"/>
      <point x="451" y="519"/>
      <point x="451" y="476" type="curve" smooth="yes"/>
      <point x="451" y="437"/>
      <point x="399" y="413"/>
      <point x="347" y="413" type="curve"/>
      <point x="347" y="371" type="line"/>
      <point x="385" y="357"/>
      <point x="408" y="351"/>
      <point x="440" y="351" type="curve" smooth="yes"/>
      <point x="548" y="351"/>
      <point x="615" y="416"/>
      <point x="615" y="488" type="curve" smooth="yes"/>
      <point x="615" y="603"/>
      <point x="491" y="686"/>
      <point x="340" y="686" type="curve" smooth="yes"/>
    </contour>
  </outline>
</glyph>
<glyph name="nine" format="2">
  <advance width="642"/>
  <unicode hex="0039"/>
  <outline>
    <contour>
      <point x="296" y="686" type="line"/>
      <point x="462" y="686"/>
      <point x="599" y="547"/>
      <point x="599" y="345" type="curve" smooth="yes"/>
      <point x="599" y="125"/>
      <point x="499" y="-16"/>
      <point x="311" y="-16" type="curve" smooth="yes"/>
      <point x="166" y="-16"/>
      <point x="49" y="69"/>
      <point x="49" y="198" type="curve"/>
      <point x="216" y="198" type="line"/>
      <point x="221" y="156"/>
      <point x="261" y="130"/>
      <point x="305" y="130" type="curve" smooth="yes"/>
      <point x="405" y="130"/>
      <point x="440" y="222"/>
      <point x="440" y="354" type="curve" smooth="yes"/>
      <point x="440" y="368"/>
      <point x="439" y="383"/>
      <point x="437" y="396" type="curve"/>
      <point x="413" y="284"/>
      <point x="334" y="252"/>
      <point x="254" y="252" type="curve" smooth="yes"/>
      <point x="124" y="252"/>
      <point x="40" y="341"/>
      <point x="40" y="467" type="curve" smooth="yes"/>
      <point x="40" y="597"/>
      <point x="146" y="686"/>
      <point x="296" y="686" type="curve" smooth="yes"/>
    </contour>
    <contour>
      <point x="296" y="539" type="line"/>
      <point x="248" y="539"/>
      <point x="204" y="507"/>
      <point x="204" y="458" type="curve" smooth="yes"/>
      <point x="204" y="407"/>
      <point x="248" y="378"/>
      <point x="298" y="378" type="curve" smooth="yes"/>
      <point x="345" y="378"/>
      <point x="390" y="407"/>
      <point x="390" y="458" type="curve" smooth="yes"/>
      <point x="390" y="507"/>
      <point x="345" y="539"/>
      <point x="296" y="539" type="curve" smooth="yes"/>
    </contour>
  </outline>
</glyph>
<glyph name="at" format="2">
  <advance width="1119"/>
  <unicode hex="0040"/>
  <outline>
    <contour>
      <point x="646" y="176" type="line"/>
      <point x="620" y="132"/>
      <point x="598" y="113"/>
      <point x="558" y="113" type="curve" smooth="yes"/>
      <point x="520" y="113"/>
      <point x="490" y="139"/>
      <point x="490" y="186" type="curve" smooth="yes"/>
      <point x="490" y="270"/>
      <point x="552" y="323"/>
      <point x="603" y="323" type="curve" smooth="yes"/>
      <point x="638" y="323"/>
      <point x="646" y="295"/>
      <point x="646" y="269" type="curve" smooth="yes"/>
    </contour>
    <contour>
      <point x="611" y="686" type="line"/>
      <point x="304" y="686"/>
      <point x="67" y="496"/>
      <point x="67" y="196" type="curve" smooth="yes"/>
      <point x="67" y="-51"/>
      <point x="275" y="-256"/>
      <point x="595" y="-256" type="curve"/>
      <point x="595" y="-125" type="line"/>
      <point x="351" y="-125"/>
      <point x="227" y="7"/>
      <point x="227" y="183" type="curve" smooth="yes"/>
      <point x="227" y="394"/>
      <point x="388" y="541"/>
      <point x="611" y="541" type="curve" smooth="yes"/>
      <point x="806" y="541"/>
      <point x="904" y="428"/>
      <point x="904" y="289" type="curve" smooth="yes"/>
      <point x="904" y="147"/>
      <point x="830" y="113"/>
      <point x="801" y="113" type="curve" smooth="yes"/>
      <point x="782" y="113"/>
      <point x="770" y="125"/>
      <point x="770" y="163" type="curve" smooth="yes"/>
      <point x="770" y="272" type="line" smooth="yes"/>
      <point x="770" y="388"/>
      <point x="708" y="446"/>
      <point x="609" y="446" type="curve" smooth="yes"/>
      <point x="467" y="446"/>
      <point x="349" y="329"/>
      <point x="349" y="183" type="curve" smooth="yes"/>
      <point x="349" y="70"/>
      <point x="433" y="-16"/>
      <point x="521" y="-16" type="curve" smooth="yes"/>
      <point x="592" y="-16"/>
      <point x="623" y="11"/>
      <point x="650" y="63" type="curve"/>
      <point x="659" y="46" type="line" smooth="yes"/>
      <point x="678" y="9"/>
      <point x="725" y="-16"/>
      <point x="796" y="-16" type="curve" smooth="yes"/>
      <point x="927" y="-16"/>
      <point x="1064" y="86"/>
      <point x="1064" y="289" type="curve" smooth="yes"/>
      <point x="1064" y="512"/>
      <point x="882" y="686"/>
      <point x="611" y="686" type="curve" smooth="yes"/>
    </contour>
  </outline>
</glyph>
<glyph name="A" format="2">
  <advance width="679"/>
  <unicode hex="0041"/>
  <anchor x="345" y="690" name="above"/>
  <outline>
    <contour>
      <point x="244" y="671" type="line"/>
      <point x="447" y="671" type="line"/>
      <point x="661" y="0" type="line"/>
      <point x="493" y="0" type="line"/>
      <point x="335" y="509" type="line"/>
      <point x="352" y="509" type="line"/>
      <point x="187" y="0" type="line"/>
      <point x="18" y="0" type="line"/>
    </contour>
    <contour>
      <point x="190" y="237" type="line"/>
      <point x="465" y="237" type="line"/>
      <point x="465" y="118" type="line"/>
      <point x="190" y="118" type="line"/>
    </contour>
  </outline>
</glyph>
<glyph name="D" format="2">
  <advance width="714"/>
  <unicode hex="0044"/>
  <outline>
    <contour>
      <point x="84" y="671" type="line"/>
      <point x="84" y="0" type="line"/>
      <point x="322" y="0" type="line" smooth="yes"/>
      <point x="529" y="0"/>
      <point x="672" y="129"/>
      <point x="672" y="335" type="curve" smooth="yes"/>
      <point x="672" y="542"/>
      <point x="529" y="671"/>
      <point x="322" y="671" type="curve" smooth="yes"/>
    </contour>
    <contour>
      <point x="244" y="525" type="line"/>
      <point x="322" y="525" type="line" smooth="yes"/>
      <point x="431" y="525"/>
      <point x="499" y="445"/>
      <point x="499" y="335" type="curve" smooth="yes"/>
      <point x="499" y="226"/>
      <point x="431" y="146"/>
      <point x="322" y="146" type="curve" smooth="yes"/>
      <point x="244" y="146" type="line"/>
    </contour>
  </outline>
</glyph>
<glyph name="F" format="2">
  <advance width="570"/>
  <unicode hex="0046"/>
  <outline>
    <contour>
      <point x="85" y="0" type="line"/>
      <point x="245" y="0" type="line"/>
      <point x="245" y="264" type="line"/>
      <point x="493" y="264" type="line"/>
      <point x="493" y="402" type="line"/>
      <point x="245" y="402" type="line"/>
      <point x="245" y="532" type="line"/>
      <point x="521" y="532" type="line"/>
      <point x="521" y="671" type="line"/>
      <point x="85" y="671" type="line"/>
    </contour>
  </outline>
</glyph>
<glyph name="J" format="2">
  <advance width="485"/>
  <unicode hex="004A"/>
  <outline>
    <contour>
      <point x="24" y="22" type="line"/>
      <point x="75" y="0"/>
      <point x="134" y="-16"/>
      <point x="198" y="-16" type="curve" smooth="yes"/>
      <point x="318" y="-16"/>
      <point x="412" y="45"/>
      <point x="412" y="222" type="curve" smooth="yes"/>
      <point x="412" y="671" type="line"/>
      <point x="250" y="671" type="line"/>
      <point x="250" y="222" type="line" smooth="yes"/>
      <point x="250" y="162"/>
      <point x="226" y="140"/>
      <point x="183" y="140" type="curve" smooth="yes"/>
      <point x="139" y="140"/>
      <point x="83" y="148"/>
      <point x="24" y="179" type="curve"/>
    </contour>
  </outline>
</glyph>
<glyph name="N" format="2">
  <advance width="752"/>
  <unicode hex="004E"/>
  <anchor x="374" y="690" name="above"/>
  <outline>
    <contour>
      <point x="81" y="671" type="line"/>
      <point x="81" y="0" type="line"/>
      <point x="242" y="0" type="line"/>
      <point x="242" y="446" type="line"/>
      <point x="215" y="446" type="line"/>
      <point x="513" y="0" type="line"/>
      <point x="667" y="0" type="line"/>
      <point x="667" y="671" type="line"/>
      <point x="507" y="671" type="line"/>
      <point x="507" y="265" type="line"/>
      <point x="518" y="265" type="line"/>
      <point x="248" y="671" type="line"/>
    </contour>
  </outline>
</glyph>
<glyph name="P" format="2">
  <advance width="609"/>
  <unicode hex="0050"/>
  <outline>
    <contour>
      <point x="590" y="451" type="line"/>
      <point x="590" y="597"/>
      <point x="492" y="671"/>
      <point x="338" y="671" type="curve" smooth="yes"/>
      <point x="80" y="671" type="line"/>
      <point x="80" y="0" type="line"/>
      <point x="241" y="0" type="line"/>
      <point x="241" y="230" type="line"/>
      <point x="338" y="230" type="line" smooth="yes"/>
      <point x="492" y="230"/>
      <point x="590" y="306"/>
      <point x="590" y="451" type="curve" smooth="yes"/>
    </contour>
    <contour>
      <point x="241" y="369" type="line"/>
      <point x="241" y="532" type="line"/>
      <point x="338" y="532" type="line" smooth="yes"/>
      <point x="397" y="532"/>
      <point x="425" y="495"/>
      <point x="425" y="451" type="curve" smooth="yes"/>
      <point x="425" y="407"/>
      <point x="397" y="369"/>
      <point x="338" y="369" type="curve" smooth="yes"/>
    </contour>
  </outline>
</glyph>
<glyph name="R" format="2">
  <advance width="676"/>
  <unicode hex="0052"/>
  <outline>
    <contour>
      <point x="270" y="324" type="line"/>
      <point x="435" y="0" type="line"/>
      <point x="645" y="0" type="line"/>
      <point x="440" y="324" type="line"/>
    </contour>
    <contour>
      <point x="612" y="459" type="line"/>
      <point x="612" y="587"/>
      <point x="515" y="671"/>
      <point x="346" y="671" type="curve" smooth="yes"/>
      <point x="85" y="671" type="line"/>
      <point x="85" y="0" type="line"/>
      <point x="245" y="0" type="line"/>
      <point x="245" y="249" type="line"/>
      <point x="346" y="249" type="line" smooth="yes"/>
      <point x="514" y="249"/>
      <point x="612" y="332"/>
      <point x="612" y="459" type="curve" smooth="yes"/>
    </contour>
    <contour>
      <point x="245" y="352" type="line"/>
      <point x="245" y="532" type="line"/>
      <point x="346" y="532" type="line" smooth="yes"/>
      <point x="414" y="532"/>
      <point x="448" y="495"/>
      <point x="448" y="442" type="curve" smooth="yes"/>
      <point x="448" y="389"/>
      <point x="409" y="352"/>
      <point x="329" y="352" type="curve" smooth="yes"/>
    </contour>
  </outline>
</glyph>
<glyph name="S" format="2">
  <advance width="672"/>
  <unicode hex="0053"/>
  <outline>
    <contour>
      <point x="329" y="686" type="line"/>
      <point x="492" y="686"/>
      <point x="578" y="606"/>
      <point x="590" y="464" type="curve"/>
      <point x="433" y="464" type="line"/>
      <point x="425" y="508"/>
      <point x="397" y="541"/>
      <point x="329" y="541" type="curve" smooth="yes"/>
      <point x="278" y="541"/>
      <point x="245" y="520"/>
      <point x="245" y="493" type="curve" smooth="yes"/>
      <point x="245" y="469"/>
      <point x="264" y="456"/>
      <point x="305" y="439" type="curve" smooth="yes"/>
      <point x="458" y="374" type="line" smooth="yes"/>
      <point x="561" y="330"/>
      <point x="611" y="272"/>
      <point x="611" y="187" type="curve" smooth="yes"/>
      <point x="611" y="53"/>
      <point x="510" y="-16"/>
      <point x="337" y="-16" type="curve" smooth="yes"/>
      <point x="193" y="-16"/>
      <point x="69" y="53"/>
      <point x="61" y="219" type="curve"/>
      <point x="219" y="219" type="line"/>
      <point x="219" y="157"/>
      <point x="270" y="130"/>
      <point x="335" y="130" type="curve" smooth="yes"/>
      <point x="388" y="130"/>
      <point x="435" y="141"/>
      <point x="435" y="181" type="curve" smooth="yes"/>
      <point x="435" y="214"/>
      <point x="419" y="224"/>
      <point x="368" y="245" type="curve" smooth="yes"/>
      <point x="221" y="309" type="line" smooth="yes"/>
      <point x="126" y="350"/>
      <point x="69" y="399"/>
      <point x="69" y="496" type="curve" smooth="yes"/>
      <point x="69" y="609"/>
      <point x="168" y="686"/>
      <point x="329" y="686" type="curve" smooth="yes"/>
    </contour>
  </outline>
</glyph>
<glyph name="T" format="2">
  <advance width="564"/>
  <unicode hex="0054"/>
  <outline>
    <contour>
      <point x="6" y="532" type="line"/>
      <point x="202" y="532" type="line"/>
      <point x="202" y="0" type="line"/>
      <point x="362" y="0" type="line"/>
      <point x="362" y="532" type="line"/>
      <point x="558" y="532" type="line"/>
      <point x="558" y="671" type="line"/>
      <point x="6" y="671" type="line"/>
    </contour>
  </outline>
</glyph>
<glyph name="U" format="2">
  <advance width="729"/>
  <unicode hex="0055"/>
  <anchor x="367" y="690" name="above"/>
  <outline>
    <contour>
      <point x="79" y="671" type="line"/>
      <point x="79" y="264" type="line" smooth="yes"/>
      <point x="79" y="94"/>
      <point x="181" y="-16"/>
      <point x="367" y="-16" type="curve" smooth="yes"/>
      <point x="554" y="-16"/>
      <point x="656" y="94"/>
      <point x="656" y="264" type="curve" smooth="yes"/>
      <point x="656" y="671" type="line"/>
      <point x="496" y="671" type="line"/>
      <point x="496" y="264" type="line" smooth="yes"/>
      <point x="496" y="168"/>
      <point x="442" y="130"/>
      <point x="367" y="130" type="curve" smooth="yes"/>
      <point x="293" y="130"/>
      <point x="239" y="168"/>
      <point x="239" y="264" type="curve" smooth="yes"/>
      <point x="239" y="671" type="line"/>
    </contour>
  </outline>
</glyph>
<glyph name="V" format="2">
  <advance width="645"/>
  <unicode hex="0056"/>
  <outline>
    <contour>
      <point x="315" y="177" type="line"/>
      <point x="329" y="177" type="line"/>
      <point x="187" y="671" type="line"/>
      <point x="18" y="671" type="line"/>
      <point x="236" y="0" type="line"/>
      <point x="405" y="0" type="line"/>
      <point x="627" y="671" type="line"/>
      <point x="459" y="671" type="line"/>
    </contour>
  </outline>
</glyph>
<glyph name="b" format="2">
  <advance width="637"/>
  <unicode hex="0062"/>
  <outline>
    <contour>
      <point x="245" y="690" type="line"/>
      <point x="85" y="690" type="line"/>
      <point x="85" y="0" type="line"/>
      <point x="185" y="0" type="line"/>
      <point x="245" y="129" type="line"/>
    </contour>
    <contour>
      <point x="377" y="509" type="line"/>
      <point x="265" y="509"/>
      <point x="202" y="429"/>
      <point x="202" y="270" type="curve"/>
      <point x="245" y="270" type="line"/>
      <point x="245" y="327"/>
      <point x="287" y="363"/>
      <point x="335" y="363" type="curve" smooth="yes"/>
      <point x="399" y="363"/>
      <point x="435" y="315"/>
      <point x="435" y="250" type="curve" smooth="yes"/>
      <point x="435" y="180"/>
      <point x="397" y="130"/>
      <point x="337" y="130" type="curve" smooth="yes"/>
      <point x="292" y="130"/>
      <point x="245" y="174"/>
      <point x="245" y="226" type="curve"/>
      <point x="202" y="226" type="line"/>
      <point x="202" y="58"/>
      <point x="278" y="-16"/>
      <point x="363" y="-16" type="curve" smooth="yes"/>
      <point x="493" y="-16"/>
      <point x="594" y="92"/>
      <point x="594" y="250" type="curve" smooth="yes"/>
      <point x="594" y="405"/>
      <point x="499" y="509"/>
      <point x="377" y="509" type="curve" smooth="yes"/>
    </contour>
  </outline>
</glyph>
<glyph name="c" format="2">
  <advance width="544"/>
  <unicode hex="0063"/>
  <outline>
    <contour>
      <point x="286" y="509" type="line"/>
      <point x="431" y="509"/>
      <point x="502" y="397"/>
      <point x="502" y="306" type="curve"/>
      <point x="343" y="306" type="line"/>
      <point x="338" y="335"/>
      <point x="320" y="363"/>
      <point x="284" y="363" type="curve" smooth="yes"/>
      <point x="243" y="363"/>
      <point x="202" y="335"/>
      <point x="202" y="247" type="curve" smooth="yes"/>
      <point x="202" y="158"/>
      <point x="243" y="130"/>
      <point x="284" y="130" type="curve" smooth="yes"/>
      <point x="329" y="130"/>
      <point x="343" y="153"/>
      <point x="343" y="186" type="curve"/>
      <point x="502" y="186" type="line"/>
      <point x="502" y="80"/>
      <point x="433" y="-16"/>
      <point x="286" y="-16" type="curve" smooth="yes"/>
      <point x="156" y="-16"/>
      <point x="43" y="89"/>
      <point x="43" y="247" type="curve" smooth="yes"/>
      <point x="43" y="419"/>
      <point x="156" y="509"/>
      <point x="286" y="509" type="curve" smooth="yes"/>
    </contour>
  </outline>
</glyph>
<glyph name="e" format="2">
  <advance width="548"/>
  <unicode hex="0065"/>
  <anchor x="272" y="547" name="above"/>
  <outline>
    <contour>
      <point x="170" y="294" type="line"/>
      <point x="170" y="213" type="line"/>
      <point x="497" y="213" type="line"/>
      <point x="531" y="363"/>
      <point x="446" y="509"/>
      <point x="282" y="509" type="curve" smooth="yes"/>
      <point x="157" y="509"/>
      <point x="43" y="412"/>
      <point x="43" y="248" type="curve" smooth="yes"/>
      <point x="43" y="84"/>
      <point x="158" y="-16"/>
      <point x="282" y="-16" type="curve" smooth="yes"/>
      <point x="403" y="-16"/>
      <point x="486" y="56"/>
      <point x="501" y="149" type="curve"/>
      <point x="343" y="149" type="line"/>
      <point x="334" y="123"/>
      <point x="310" y="112"/>
      <point x="282" y="112" type="curve" smooth="yes"/>
      <point x="228" y="112"/>
      <point x="200" y="152"/>
      <point x="200" y="215" type="curve" smooth="yes"/>
      <point x="200" y="277" type="line" smooth="yes"/>
      <point x="200" y="343"/>
      <point x="233" y="382"/>
      <point x="284" y="382" type="curve" smooth="yes"/>
      <point x="338" y="382"/>
      <point x="357" y="338"/>
      <point x="357" y="294" type="curve"/>
    </contour>
  </outline>
</glyph>
<glyph name="h" format="2">
  <advance width="644"/>
  <unicode hex="0068"/>
  <outline>
    <contour>
      <point x="85" y="690" type="line"/>
      <point x="85" y="0" type="line"/>
      <point x="245" y="0" type="line"/>
      <point x="245" y="690" type="line"/>
    </contour>
    <contour>
      <point x="390" y="509" type="line"/>
      <point x="278" y="509"/>
      <point x="197" y="420"/>
      <point x="197" y="207" type="curve"/>
      <point x="245" y="207" type="line"/>
      <point x="245" y="321"/>
      <point x="290" y="363"/>
      <point x="345" y="363" type="curve" smooth="yes"/>
      <point x="382" y="363"/>
      <point x="411" y="339"/>
      <point x="411" y="287" type="curve" smooth="yes"/>
      <point x="411" y="0" type="line"/>
      <point x="571" y="0" type="line"/>
      <point x="571" y="287" type="line" smooth="yes"/>
      <point x="571" y="417"/>
      <point x="516" y="509"/>
      <point x="390" y="509" type="curve" smooth="yes"/>
    </contour>
  </outline>
</glyph>
<glyph name="i" format="2">
  <advance width="360"/>
  <unicode hex="0069"/>
  <outline>
    <contour>
      <point x="100" y="0" type="line"/>
      <point x="260" y="0" type="line"/>
      <point x="260" y="495" type="line"/>
      <point x="100" y="495" type="line"/>
    </contour>
    <contour>
      <point x="85" y="645" type="line"/>
      <point x="85" y="589"/>
      <point x="120" y="556"/>
      <point x="180" y="556" type="curve" smooth="yes"/>
      <point x="238" y="556"/>
      <point x="275" y="589"/>
      <point x="275" y="645" type="curve" smooth="yes"/>
      <point x="275" y="701"/>
      <point x="238" y="736"/>
      <point x="180" y="736" type="curve" smooth="yes"/>
      <point x="120" y="736"/>
      <point x="85" y="701"/>
      <point x="85" y="645" type="curve" smooth="yes"/>
    </contour>
  </outline>
</glyph>
<glyph name="j" format="2">
  <advance width="357"/>
  <unicode hex="006A"/>
  <outline>
    <contour>
      <point x="81" y="645" type="line"/>
      <point x="81" y="589"/>
      <point x="117" y="556"/>
      <point x="176" y="556" type="curve" smooth="yes"/>
      <point x="236" y="556"/>
      <point x="272" y="589"/>
      <point x="272" y="645" type="curve" smooth="yes"/>
      <point x="272" y="701"/>
      <point x="236" y="736"/>
      <point x="176" y="736" type="curve" smooth="yes"/>
      <point x="117" y="736"/>
      <point x="81" y="701"/>
      <point x="81" y="645" type="curve" smooth="yes"/>
    </contour>
    <contour>
      <point x="97" y="-45" type="line"/>
      <point x="97" y="-102"/>
      <point x="77" y="-117"/>
      <point x="36" y="-117" type="curve" smooth="yes"/>
      <point x="4" y="-117"/>
      <point x="-36" y="-106"/>
      <point x="-66" y="-94" type="curve"/>
      <point x="-66" y="-231" type="line"/>
      <point x="-19" y="-244"/>
      <point x="23" y="-256"/>
      <point x="80" y="-256" type="curve" smooth="yes"/>
      <point x="197" y="-256"/>
      <point x="258" y="-199"/>
      <point x="258" y="-47" type="curve" smooth="yes"/>
      <point x="258" y="495" type="line"/>
      <point x="97" y="495" type="line"/>
    </contour>
  </outline>
</glyph>
<glyph name="l" format="2">
  <advance width="330"/>
  <unicode hex="006C"/>
  <outline>
    <contour>
      <point x="85" y="0" type="line"/>
      <point x="245" y="0" type="line"/>
      <point x="245" y="690" type="line"/>
      <point x="85" y="690" type="line"/>
    </contour>
  </outline>
</glyph>
<glyph name="m" format="2">
  <advance width="963"/>
  <unicode hex="006D"/>
  <outline>
    <contour>
      <point x="85" y="493" type="line"/>
      <point x="85" y="0" type="line"/>
      <point x="245" y="0" type="line"/>
      <point x="245" y="411" type="line"/>
      <point x="226" y="493" type="line"/>
    </contour>
    <contour>
      <point x="710" y="509" type="line"/>
      <point x="601" y="509"/>
      <point x="508" y="443"/>
      <point x="508" y="207" type="curve"/>
      <point x="571" y="207" type="line"/>
      <point x="571" y="321"/>
      <point x="610" y="363"/>
      <point x="665" y="363" type="curve" smooth="yes"/>
      <point x="701" y="363"/>
      <point x="730" y="339"/>
      <point x="730" y="287" type="curve" smooth="yes"/>
      <point x="730" y="0" type="line"/>
      <point x="891" y="0" type="line"/>
      <point x="891" y="287" type="line" smooth="yes"/>
      <point x="891" y="417"/>
      <point x="836" y="509"/>
      <point x="710" y="509" type="curve" smooth="yes"/>
    </contour>
    <contour>
      <point x="390" y="509" type="line"/>
      <point x="278" y="509"/>
      <point x="197" y="420"/>
      <point x="197" y="207" type="curve"/>
      <point x="245" y="207" type="line"/>
      <point x="245" y="321"/>
      <point x="290" y="363"/>
      <point x="345" y="363" type="curve" smooth="yes"/>
      <point x="382" y="363"/>
      <point x="411" y="339"/>
      <point x="411" y="287" type="curve" smooth="yes"/>
      <point x="411" y="0" type="line"/>
      <point x="571" y="0" type="line"/>
      <point x="571" y="287" type="line" smooth="yes"/>
      <point x="571" y="417"/>
      <point x="516" y="509"/>
      <point x="390" y="509" type="curve" smooth="yes"/>
    </contour>
  </outline>
</glyph>
<glyph name="p" format="2">
  <advance width="637"/>
  <unicode hex="0070"/>
  <outline>
    <contour>
      <point x="85" y="493" type="line"/>
      <point x="215" y="493" type="line"/>
      <point x="245" y="364" type="line"/>
      <point x="245" y="-240" type="line"/>
      <point x="85" y="-240" type="line"/>
    </contour>
    <contour>
      <point x="355" y="-16" type="line"/>
      <point x="245" y="-16"/>
      <point x="192" y="47"/>
      <point x="192" y="197" type="curve"/>
      <point x="245" y="197" type="line"/>
      <point x="245" y="158"/>
      <point x="284" y="130"/>
      <point x="329" y="130" type="curve" smooth="yes"/>
      <point x="375" y="130"/>
      <point x="435" y="163"/>
      <point x="435" y="247" type="curve" smooth="yes"/>
      <point x="435" y="317"/>
      <point x="396" y="363"/>
      <point x="333" y="363" type="curve" smooth="yes"/>
      <point x="281" y="363"/>
      <point x="245" y="330"/>
      <point x="245" y="278" type="curve"/>
      <point x="192" y="278" type="line"/>
      <point x="192" y="446"/>
      <point x="273" y="509"/>
      <point x="363" y="509" type="curve" smooth="yes"/>
      <point x="481" y="509"/>
      <point x="594" y="412"/>
      <point x="594" y="247" type="curve" smooth="yes"/>
      <point x="594" y="80"/>
      <point x="480" y="-16"/>
      <point x="355" y="-16" type="curve"/>
    </contour>
  </outline>
</glyph>
<glyph name="q" format="2">
  <advance width="637"/>
  <unicode hex="0071"/>
  <outline>
    <contour>
      <point x="43" y="247" type="line"/>
      <point x="43" y="412"/>
      <point x="156" y="509"/>
      <point x="273" y="509" type="curve" smooth="yes"/>
      <point x="363" y="509"/>
      <point x="445" y="446"/>
      <point x="445" y="278" type="curve"/>
      <point x="391" y="278" type="line"/>
      <point x="391" y="330"/>
      <point x="356" y="363"/>
      <point x="304" y="363" type="curve" smooth="yes"/>
      <point x="241" y="363"/>
      <point x="202" y="317"/>
      <point x="202" y="247" type="curve" smooth="yes"/>
      <point x="202" y="163"/>
      <point x="261" y="130"/>
      <point x="307" y="130" type="curve" smooth="yes"/>
      <point x="352" y="130"/>
      <point x="391" y="158"/>
      <point x="391" y="197" type="curve"/>
      <point x="414" y="197" type="line"/>
      <point x="414" y="74"/>
      <point x="391" y="-16"/>
      <point x="282" y="-16" type="curve" smooth="yes"/>
      <point x="157" y="-16"/>
      <point x="43" y="80"/>
      <point x="43" y="247" type="curve" smooth="yes"/>
    </contour>
    <contour>
      <point x="452" y="493" type="line"/>
      <point x="552" y="493" type="line"/>
      <point x="552" y="-69" type="line" smooth="yes"/>
      <point x="552" y="-118"/>
      <point x="566" y="-130"/>
      <point x="612" y="-143" type="curve"/>
      <point x="570" y="-256" type="line"/>
      <point x="442" y="-228"/>
      <point x="391" y="-166"/>
      <point x="391" y="-55" type="curve" smooth="yes"/>
      <point x="391" y="364" type="line"/>
    </contour>
  </outline>
</glyph>
<glyph name="r" format="2">
  <advance width="425"/>
  <unicode hex="0072"/>
  <outline>
    <contour>
      <point x="85" y="495" type="line"/>
      <point x="85" y="0" type="line"/>
      <point x="245" y="0" type="line"/>
      <point x="245" y="495" type="line"/>
    </contour>
    <contour>
      <point x="380" y="502" type="line"/>
      <point x="299" y="502"/>
      <point x="210" y="411"/>
      <point x="210" y="210" type="curve"/>
      <point x="245" y="210" type="line"/>
      <point x="245" y="305"/>
      <point x="292" y="340"/>
      <point x="362" y="340" type="curve" smooth="yes"/>
      <point x="377" y="340"/>
      <point x="395" y="340"/>
      <point x="413" y="338" type="curve"/>
      <point x="412" y="499" type="line"/>
      <point x="402" y="501"/>
      <point x="391" y="502"/>
      <point x="380" y="502" type="curve" smooth="yes"/>
    </contour>
  </outline>
</glyph>
<glyph name="t" format="2">
  <advance width="414"/>
  <unicode hex="0074"/>
  <outline>
    <contour>
      <point x="89" y="618" type="line"/>
      <point x="249" y="618" type="line"/>
      <point x="249" y="153" type="line" smooth="yes"/>
      <point x="249" y="124"/>
      <point x="266" y="109"/>
      <point x="293" y="109" type="curve" smooth="yes"/>
      <point x="312" y="109"/>
      <point x="333" y="113"/>
      <point x="361" y="122" type="curve"/>
      <point x="384" y="11" type="line"/>
      <point x="344" y="-5"/>
      <point x="309" y="-16"/>
      <point x="267" y="-16" type="curve" smooth="yes"/>
      <point x="173" y="-16"/>
      <point x="89" y="33"/>
      <point x="89" y="148" type="curve" smooth="yes"/>
    </contour>
    <contour>
      <point x="30" y="493" type="line"/>
      <point x="361" y="493" type="line"/>
      <point x="361" y="390" type="line"/>
      <point x="30" y="390" type="line"/>
    </contour>
  </outline>
</glyph>
<glyph name="u" format="2">
  <advance width="650"/>
  <unicode hex="0075"/>
  <anchor x="326" y="547" name="above"/>
  <outline>
    <contour>
      <point x="405" y="495" type="line"/>
      <point x="405" y="0" type="line"/>
      <point x="565" y="0" type="line"/>
      <point x="565" y="495" type="line"/>
    </contour>
    <contour>
      <point x="79" y="495" type="line"/>
      <point x="79" y="179" type="line" smooth="yes"/>
      <point x="79" y="36"/>
      <point x="169" y="-9"/>
      <point x="269" y="-9" type="curve" smooth="yes"/>
      <point x="366" y="-9"/>
      <point x="440" y="68"/>
      <point x="440" y="264" type="curve"/>
      <point x="405" y="264" type="line"/>
      <point x="405" y="162"/>
      <point x="349" y="131"/>
      <point x="301" y="131" type="curve" smooth="yes"/>
      <point x="264" y="131"/>
      <point x="239" y="152"/>
      <point x="239" y="198" type="curve" smooth="yes"/>
      <point x="239" y="495" type="line"/>
    </contour>
  </outline>
</glyph>
<glyph name="x" format="2">
  <advance width="598"/>
  <unicode hex="0078"/>
  <outline>
    <contour>
      <point x="592" y="0" type="line"/>
      <point x="397" y="0" type="line"/>
      <point x="294" y="129" type="line"/>
      <point x="202" y="0" type="line"/>
      <point x="6" y="0" type="line"/>
      <point x="202" y="245" type="line"/>
      <point x="6" y="495" type="line"/>
      <point x="202" y="495" type="line"/>
      <point x="303" y="366" type="line"/>
      <point x="397" y="495" type="line"/>
      <point x="592" y="495" type="line"/>
      <point x="397" y="245" type="line"/>
    </contour>
  </outline>
</glyph>
<glyph name="y" format="2">
  <advance width="544"/>
  <unicode hex="0079"/>
  <outline>
    <contour>
      <point x="15" y="493" type="line"/>
      <point x="210" y="0" type="line"/>
      <point x="194" y="-46" type="line" smooth="yes"/>
      <point x="176" y="-100"/>
      <point x="147" y="-117"/>
      <point x="113" y="-117" type="curve" smooth="yes"/>
      <point x="80" y="-117"/>
      <point x="43" y="-108"/>
      <point x="6" y="-90" type="curve"/>
      <point x="6" y="-227" type="line"/>
      <point x="57" y="-248"/>
      <point x="107" y="-256"/>
      <point x="157" y="-256" type="curve" smooth="yes"/>
      <point x="239" y="-256"/>
      <point x="300" y="-214"/>
      <point x="345" y="-79" type="curve" smooth="yes"/>
      <point x="538" y="493" type="line"/>
      <point x="377" y="493" type="line"/>
      <point x="275" y="139" type="line"/>
      <point x="300" y="139" type="line"/>
      <point x="199" y="493" type="line"/>
    </contour>
  </outline>
</glyph>
<glyph name="bar" format="2">
  <advance width="330"/>
  <unicode hex="007C"/>
  <outline>
    <contour>
      <point x="85" y="-122" type="line"/>
      <point x="245" y="-122" type="line"/>
      <point x="245" y="792" type="line"/>
      <point x="85" y="792" type="line"/>
    </contour>
  </outline>
</glyph>
<glyph name="asciitilde" format="2">
  <advance width="627"/>
  <unicode hex="007E"/>
  <anchor x="307" y="146" name="_above"/>
  <outline>
    <contour>
      <point x="145" y="185" type="curve"/>
      <point x="61" y="230" type="line"/>
      <point x="85" y="330"/>
      <point x="128" y="400"/>
      <point x="211" y="400" type="curve" smooth="yes"/>
      <point x="245" y="400"/>
      <point x="281" y="390"/>
      <point x="327" y="372" type="curve" smooth="yes"/>
      <point x="368" y="356"/>
      <point x="396" y="347"/>
      <point x="417" y="347" type="curve" smooth="yes"/>
      <point x="443" y="347"/>
      <point x="465" y="366"/>
      <point x="480" y="401" type="curve"/>
      <point x="566" y="347" type="line"/>
      <point x="536" y="249"/>
      <point x="479" y="196"/>
      <point x="403" y="196" type="curve" smooth="yes"/>
      <point x="379" y="196"/>
      <point x="346" y="205"/>
      <point x="298" y="224" type="curve" smooth="yes"/>
      <point x="255" y="239"/>
      <point x="232" y="247"/>
      <point x="211" y="247" type="curve" smooth="yes"/>
      <point x="183" y="247"/>
      <point x="162" y="228"/>
    </contour>
  </outline>
</glyph>
<glyph name="cent" format="2">
  <advance width="545"/>
  <unicode hex="00A2"/>
  <guideline x="977" y="764" angle="0"/>
  <outline>
    <contour>
      <point x="216" y="604" type="line"/>
      <point x="345" y="604" type="line"/>
      <point x="345" y="468" type="line"/>
      <point x="216" y="468" type="line"/>
    </contour>
    <contour>
      <point x="216" y="34" type="line"/>
      <point x="345" y="34" type="line"/>
      <point x="345" y="-111" type="line"/>
      <point x="216" y="-111" type="line"/>
    </contour>
    <component base="c"/>
  </outline>
</glyph>
<glyph name="yen" format="2">
  <advance width="627"/>
  <unicode hex="00A5"/>
  <outline>
    <contour>
      <point x="227" y="0" type="line"/>
      <point x="386" y="0" type="line"/>
      <point x="386" y="278" type="line"/>
      <point x="622" y="671" type="line"/>
      <point x="433" y="671" type="line"/>
      <point x="296" y="419" type="line"/>
      <point x="321" y="419" type="line"/>
      <point x="194" y="671" type="line"/>
      <point x="5" y="671" type="line"/>
      <point x="227" y="278" type="line"/>
    </contour>
    <contour>
      <point x="129" y="68" type="line"/>
      <point x="489" y="68" type="line"/>
      <point x="489" y="153" type="line"/>
      <point x="129" y="153" type="line"/>
    </contour>
    <contour>
      <point x="129" y="183" type="line"/>
      <point x="489" y="183" type="line"/>
      <point x="489" y="268" type="line"/>
      <point x="129" y="268" type="line"/>
    </contour>
  </outline>
</glyph>
<glyph name="dieresis" format="2">
  <advance width="446"/>
  <unicode hex="00A8"/>
  <anchor x="222" y="686" name="_above"/>
  <outline>
    <contour>
      <point x="24" y="844" type="line"/>
      <point x="24" y="796"/>
      <point x="60" y="761"/>
      <point x="113" y="761" type="curve" smooth="yes"/>
      <point x="165" y="761"/>
      <point x="203" y="796"/>
      <point x="203" y="844" type="curve" smooth="yes"/>
      <point x="203" y="893"/>
      <point x="165" y="928"/>
      <point x="113" y="928" type="curve" smooth="yes"/>
      <point x="60" y="928"/>
      <point x="24" y="893"/>
      <point x="24" y="844" type="curve" smooth="yes"/>
    </contour>
    <contour>
      <point x="243" y="844" type="line"/>
      <point x="243" y="796"/>
      <point x="281" y="761"/>
      <point x="332" y="761" type="curve" smooth="yes"/>
      <point x="384" y="761"/>
      <point x="422" y="796"/>
      <point x="422" y="844" type="curve" smooth="yes"/>
      <point x="422" y="893"/>
      <point x="384" y="928"/>
      <point x="332" y="928" type="curve" smooth="yes"/>
      <point x="281" y="928"/>
      <point x="243" y="893"/>
      <point x="243" y="844" type="curve" smooth="yes"/>
    </contour>
  </outline>
</glyph>
<glyph name="multiply" format="2">
  <advance width="562"/>
  <unicode hex="00D7"/>
  <outline>
    <contour>
      <point x="164" y="34" type="line"/>
      <point x="281" y="152" type="line"/>
      <point x="398" y="34" type="line"/>
      <point x="512" y="148" type="line"/>
      <point x="394" y="265" type="line"/>
      <point x="512" y="382" type="line"/>
      <point x="398" y="496" type="line"/>
      <point x="281" y="378" type="line"/>
      <point x="164" y="496" type="line"/>
      <point x="50" y="382" type="line"/>
      <point x="168" y="265" type="line"/>
      <point x="50" y="148" type="line"/>
    </contour>
  </outline>
</glyph>
<glyph name="divide" format="2">
  <advance width="526"/>
  <unicode hex="00F7"/>
  <outline>
    <contour>
      <point x="49" y="218" type="line"/>
      <point x="477" y="218" type="line"/>
      <point x="477" y="359" type="line"/>
      <point x="49" y="359" type="line"/>
    </contour>
    <contour>
      <point x="262" y="7" type="curve" smooth="yes"/>
      <point x="312" y="7"/>
      <point x="350" y="41"/>
      <point x="350" y="89" type="curve" smooth="yes"/>
      <point x="350" y="135"/>
      <point x="312" y="170"/>
      <point x="262" y="170" type="curve" smooth="yes"/>
      <point x="212" y="170"/>
      <point x="176" y="135"/>
      <point x="176" y="89" type="curve" smooth="yes"/>
      <point x="176" y="41"/>
      <point x="212" y="7"/>
    </contour>
    <contour>
      <point x="262" y="403" type="curve" smooth="yes"/>
      <point x="312" y="403"/>
      <point x="350" y="437"/>
      <point x="350" y="485" type="curve" smooth="yes"/>
      <point x="350" y="531"/>
      <point x="312" y="566"/>
      <point x="262" y="566" type="curve" smooth="yes"/>
      <point x="212" y="566"/>
      <point x="176" y="531"/>
      <point x="176" y="485" type="curve" smooth="yes"/>
      <point x="176" y="437"/>
      <point x="212" y="403"/>
    </contour>
  </outline>
</glyph>
<glyph name="dotlessi" format="2">
  <advance width="330"/>
  <unicode hex="0131"/>
  <anchor x="165" y="547" name="above"/>
  <outline>
    <contour>
      <point x="85" y="0" type="line"/>
      <point x="245" y="0" type="line"/>
      <point x="245" y="495" type="line"/>
      <point x="85" y="495" type="line"/>
    </contour>
  </outline>
</glyph>
<glyph name="tilde" format="2">
  <advance width="425"/>
  <unicode hex="02DC"/>
  <anchor x="213" y="690" name="_above"/>
  <outline>
    <contour>
      <point x="85" y="745" type="line"/>
      <point x="24" y="781" type="line"/>
      <point x="39" y="876"/>
      <point x="86" y="936"/>
      <point x="148" y="936" type="curve" smooth="yes"/>
      <point x="170" y="936"/>
      <point x="192" y="927"/>
      <point x="222" y="912" type="curve" smooth="yes"/>
      <point x="249" y="899"/>
      <point x="264" y="889"/>
      <point x="282" y="889" type="curve" smooth="yes"/>
      <point x="301" y="889"/>
      <point x="321" y="904"/>
      <point x="334" y="936" type="curve"/>
      <point x="401" y="891" type="line"/>
      <point x="389" y="810"/>
      <point x="334" y="745"/>
      <point x="286" y="745" type="curve" smooth="yes"/>
      <point x="258" y="745"/>
      <point x="236" y="755"/>
      <point x="203" y="772" type="curve" smooth="yes"/>
      <point x="175" y="786"/>
      <point x="163" y="792"/>
      <point x="148" y="792" type="curve" smooth="yes"/>
      <point x="126" y="792"/>
      <point x="107" y="784"/>
      <point x="85" y="745" type="curve"/>
    </contour>
  </outline>
</glyph>
<glyph name="endash" format="2">
  <advance width="580"/>
  <unicode hex="2013"/>
  <outline>
    <contour>
      <point x="55" y="242" type="line"/>
      <point x="525" y="242" type="line"/>
      <point x="525" y="382" type="line"/>
      <point x="55" y="382" type="line"/>
    </contour>
  </outline>
</glyph>
<glyph name="quoteleft" format="2">
  <advance width="333"/>
  <unicode hex="2018"/>
  <outline>
    <contour>
      <point x="158" y="337" type="line"/>
      <point x="220" y="337"/>
      <point x="265" y="378"/>
      <point x="265" y="431" type="curve" smooth="yes"/>
      <point x="265" y="477"/>
      <point x="227" y="509"/>
      <point x="182" y="518" type="curve"/>
      <point x="198" y="561"/>
      <point x="243" y="593"/>
      <point x="294" y="617" type="curve"/>
      <point x="185" y="679" type="line"/>
      <point x="100" y="637"/>
      <point x="36" y="556"/>
      <point x="36" y="475" type="curve" smooth="yes"/>
      <point x="36" y="400"/>
      <point x="83" y="337"/>
      <point x="158" y="337" type="curve" smooth="yes"/>
    </contour>
  </outline>
</glyph>
<glyph name="quoteright" format="2">
  <advance width="333"/>
  <unicode hex="2019"/>
  <outline>
    <contour>
      <point x="180" y="679" type="line"/>
      <point x="118" y="679"/>
      <point x="72" y="640"/>
      <point x="72" y="587" type="curve" smooth="yes"/>
      <point x="72" y="539"/>
      <point x="109" y="508"/>
      <point x="156" y="499" type="curve"/>
      <point x="140" y="457"/>
      <point x="95" y="423"/>
      <point x="44" y="399" type="curve"/>
      <point x="153" y="337" type="line"/>
      <point x="237" y="380"/>
      <point x="301" y="460"/>
      <point x="301" y="541" type="curve" smooth="yes"/>
      <point x="301" y="617"/>
      <point x="255" y="679"/>
      <point x="180" y="679" type="curve" smooth="yes"/>
    </contour>
  </outline>
</glyph>
<glyph name="euro" format="2">
  <advance width="655"/>
  <unicode hex="20AC"/>
  <guideline x="472" y="343" angle="0"/>
  <outline>
    <contour>
      <point x="13" y="349" type="line"/>
      <point x="13" y="434" type="line"/>
      <point x="383" y="434" type="line"/>
      <point x="383" y="349" type="line"/>
    </contour>
    <contour>
      <point x="13" y="229" type="line"/>
      <point x="13" y="314" type="line"/>
      <point x="383" y="314" type="line"/>
      <point x="383" y="229" type="line"/>
    </contour>
    <contour>
      <point x="359" y="686" type="line"/>
      <point x="528" y="686"/>
      <point x="615" y="598"/>
      <point x="632" y="470" type="curve"/>
      <point x="462" y="440" type="line"/>
      <point x="446" y="498"/>
      <point x="415" y="541"/>
      <point x="359" y="541" type="curve" smooth="yes"/>
      <point x="286" y="541"/>
      <point x="235" y="475"/>
      <point x="235" y="335" type="curve" smooth="yes"/>
      <point x="235" y="196"/>
      <point x="286" y="130"/>
      <point x="359" y="130" type="curve" smooth="yes"/>
      <point x="427" y="130"/>
      <point x="462" y="173"/>
      <point x="462" y="224" type="curve"/>
      <point x="632" y="224" type="line"/>
      <point x="632" y="70"/>
      <point x="536" y="-16"/>
      <point x="359" y="-16" type="curve" smooth="yes"/>
      <point x="183" y="-16"/>
      <point x="63" y="104"/>
      <point x="63" y="335" type="curve" smooth="yes"/>
      <point x="63" y="566"/>
      <point x="183" y="686"/>
      <point x="359" y="686" type="curve" smooth="yes"/>
    </contour>
  </outline>
</glyph>
<glyph name="Rupee" format="2">
  <advance width="629"/>
  <unicode hex="20B9"/>
  <outline>
    <contour>
      <point x="73" y="586" type="line"/>
      <point x="587" y="586" type="line"/>
      <point x="587" y="671" type="line"/>
      <point x="73" y="671" type="line"/>
    </contour>
    <contour>
      <point x="73" y="416" type="line"/>
      <point x="587" y="416" type="line"/>
      <point x="587" y="501" type="line"/>
      <point x="73" y="501" type="line"/>
    </contour>
    <contour>
      <point x="73" y="330" type="line"/>
      <point x="73" y="245" type="line"/>
      <point x="313" y="0" type="line"/>
      <point x="536" y="0" type="line"/>
      <point x="213" y="330" type="line"/>
    </contour>
    <contour>
      <point x="126" y="330" type="line"/>
      <point x="126" y="245" type="line"/>
      <point x="151" y="245" type="line" smooth="yes"/>
      <point x="391" y="245"/>
      <point x="479" y="334"/>
      <point x="479" y="458" type="curve" smooth="yes"/>
      <point x="479" y="572"/>
      <point x="364" y="645"/>
      <point x="151" y="645" type="curve" smooth="yes"/>
      <point x="126" y="645" type="line"/>
      <point x="126" y="586" type="line"/>
      <point x="151" y="586" type="line" smooth="yes"/>
      <point x="261" y="586"/>
      <point x="306" y="531"/>
      <point x="306" y="458" type="curve" smooth="yes"/>
      <point x="306" y="385"/>
      <point x="261" y="330"/>
      <point x="151" y="330" type="curve" smooth="yes"/>
    </contour>
  </outline>
</glyph>
<glyph name="notequal" format="2">
  <advance width="526"/>
  <unicode hex="2260"/>
  <outline>
    <contour>
      <point x="79" y="213" type="line"/>
      <point x="79" y="73" type="line"/>
      <point x="447" y="73" type="line"/>
      <point x="447" y="213" type="line"/>
    </contour>
    <contour>
      <point x="79" y="442" type="line"/>
      <point x="79" y="303" type="line"/>
      <point x="447" y="303" type="line"/>
      <point x="447" y="442" type="line"/>
    </contour>
    <contour>
      <point x="134" y="14" type="line"/>
      <point x="234" y="14" type="line"/>
      <point x="400" y="515" type="line"/>
      <point x="301" y="515" type="line"/>
    </contour>
  </outline>
</glyph>
<glyph name="greaterequal" format="2">
  <advance width="526"/>
  <unicode hex="2265"/>
  <outline>
    <contour>
      <point x="95" y="155" type="line"/>
      <point x="458" y="281" type="line"/>
      <point x="458" y="399" type="line"/>
      <point x="95" y="526" type="line"/>
      <point x="68" y="396" type="line"/>
      <point x="374" y="312" type="line"/>
      <point x="374" y="368" type="line"/>
      <point x="68" y="285" type="line"/>
    </contour>
    <contour>
      <point x="87" y="0" type="line"/>
      <point x="455" y="0" type="line"/>
      <point x="455" y="119" type="line"/>
      <point x="87" y="119" type="line"/>
    </contour>
  </outline>
</glyph>
<glyph name="euro.tf" format="2">
  <advance width="600"/>
  <outline>
    <contour>
      <point x="10" y="349" type="line"/>
      <point x="10" y="434" type="line"/>
      <point x="340" y="434" type="line"/>
      <point x="340" y="349" type="line"/>
    </contour>
    <contour>
      <point x="10" y="229" type="line"/>
      <point x="10" y="314" type="line"/>
      <point x="340" y="314" type="line"/>
      <point x="340" y="229" type="line"/>
    </contour>
    <contour>
      <point x="336" y="686" type="line"/>
      <point x="495" y="686"/>
      <point x="572" y="598"/>
      <point x="583" y="470" type="curve"/>
      <point x="413" y="440" type="line"/>
      <point x="403" y="498"/>
      <point x="382" y="541"/>
      <point x="336" y="541" type="curve" smooth="yes"/>
      <point x="283" y="541"/>
      <point x="232" y="481"/>
      <point x="232" y="324" type="curve" smooth="yes"/>
      <point x="232" y="195"/>
      <point x="266" y="130"/>
      <point x="336" y="130" type="curve" smooth="yes"/>
      <point x="394" y="130"/>
      <point x="419" y="173"/>
      <point x="419" y="224" type="curve"/>
      <point x="589" y="224" type="line"/>
      <point x="589" y="70"/>
      <point x="496" y="-16"/>
      <point x="349" y="-16" type="curve" smooth="yes"/>
      <point x="174" y="-16"/>
      <point x="60" y="105"/>
      <point x="60" y="333" type="curve" smooth="yes"/>
      <point x="60" y="567"/>
      <point x="180" y="686"/>
      <point x="336" y="686" type="curve" smooth="yes"/>
    </contour>
  </outline>
</glyph>
<glyph name="five.prop" format="2">
  <advance width="611"/>
  <outline>
    <contour>
      <point x="112" y="618" type="line"/>
      <point x="78" y="225" type="line"/>
      <point x="286" y="225" type="line" smooth="yes"/>
      <point x="372" y="225"/>
      <point x="411" y="188"/>
      <point x="411" y="126" type="curve" smooth="yes"/>
      <point x="411" y="60"/>
      <point x="363" y="21"/>
      <point x="304" y="21" type="curve" smooth="yes"/>
      <point x="248" y="21"/>
      <point x="207" y="52"/>
      <point x="207" y="111" type="curve"/>
      <point x="49" y="111" type="line"/>
      <point x="49" y="-41"/>
      <point x="169" y="-125"/>
      <point x="300" y="-125" type="curve" smooth="yes"/>
      <point x="451" y="-125"/>
      <point x="569" y="-21"/>
      <point x="569" y="126" type="curve" smooth="yes"/>
      <point x="569" y="260"/>
      <point x="479" y="352"/>
      <point x="338" y="352" type="curve" smooth="yes"/>
      <point x="299" y="352"/>
      <point x="272" y="347"/>
      <point x="236" y="335" type="curve"/>
      <point x="243" y="324" type="line"/>
      <point x="261" y="505" type="line"/>
      <point x="232" y="473" type="line"/>
      <point x="532" y="473" type="line"/>
      <point x="532" y="618" type="line"/>
    </contour>
  </outline>
</glyph>
<glyph name="five.tf" format="2">
  <advance width="600"/>
  <outline>
    <contour>
      <point x="94" y="671" type="line"/>
      <point x="62" y="307" type="line"/>
      <point x="291" y="307" type="line" smooth="yes"/>
      <point x="365" y="307"/>
      <point x="401" y="279"/>
      <point x="401" y="230" type="curve" smooth="yes"/>
      <point x="401" y="173"/>
      <point x="355" y="130"/>
      <point x="300" y="130" type="curve" smooth="yes"/>
      <point x="242" y="130"/>
      <point x="200" y="157"/>
      <point x="200" y="213" type="curve"/>
      <point x="36" y="213" type="line"/>
      <point x="40" y="68"/>
      <point x="138" y="-16"/>
      <point x="300" y="-16" type="curve" smooth="yes"/>
      <point x="457" y="-16"/>
      <point x="565" y="94"/>
      <point x="565" y="230" type="curve" smooth="yes"/>
      <point x="565" y="351"/>
      <point x="478" y="425"/>
      <point x="345" y="425" type="curve" smooth="yes"/>
      <point x="313" y="425"/>
      <point x="259" y="420"/>
      <point x="226" y="412" type="curve"/>
      <point x="236" y="400" type="line"/>
      <point x="253" y="566" type="line"/>
      <point x="223" y="525" type="line"/>
      <point x="526" y="525" type="line"/>
      <point x="526" y="671" type="line"/>
    </contour>
  </outline>
</glyph>
<glyph name="four.tf" format="2">
  <advance width="600"/>
  <outline>
    <contour>
      <point x="334" y="676" type="line"/>
      <point x="10" y="254" type="line"/>
      <point x="10" y="134" type="line"/>
      <point x="389" y="134" type="line"/>
      <point x="334" y="179" type="line"/>
      <point x="334" y="0" type="line"/>
      <point x="492" y="0" type="line"/>
      <point x="492" y="179" type="line"/>
      <point x="457" y="134" type="line"/>
      <point x="589" y="134" type="line"/>
      <point x="589" y="254" type="line"/>
      <point x="457" y="254" type="line"/>
      <point x="492" y="228" type="line"/>
      <point x="492" y="676" type="line"/>
    </contour>
    <contour>
      <point x="342" y="502" type="line"/>
      <point x="342" y="209" type="line"/>
      <point x="397" y="254" type="line"/>
      <point x="154" y="254" type="line"/>
      <point x="161" y="219" type="line"/>
      <point x="380" y="502" type="line"/>
    </contour>
  </outline>
</glyph>
<glyph name="greater.tf" format="2">
  <advance width="600"/>
  <outline>
    <contour>
      <point x="176" y="665" type="line"/>
      <point x="531" y="413" type="line"/>
      <point x="531" y="267" type="line"/>
      <point x="176" y="16" type="line"/>
      <point x="70" y="136" type="line"/>
      <point x="413" y="374" type="line"/>
      <point x="413" y="306" type="line"/>
      <point x="70" y="544" type="line"/>
    </contour>
  </outline>
</glyph>
<glyph name="less.tf" format="2">
  <advance width="600"/>
  <outline>
    <contour>
      <point x="423" y="665" type="line"/>
      <point x="69" y="413" type="line"/>
      <point x="69" y="267" type="line"/>
      <point x="423" y="16" type="line"/>
      <point x="530" y="136" type="line"/>
      <point x="186" y="374" type="line"/>
      <point x="186" y="306" type="line"/>
      <point x="530" y="544" type="line"/>
    </contour>
  </outline>
</glyph>
<glyph name="nine.prop" format="2">
  <advance width="640"/>
  <outline>
    <contour>
      <point x="296" y="618" type="line"/>
      <point x="505" y="618"/>
      <point x="598" y="418"/>
      <point x="598" y="248" type="curve" smooth="yes"/>
      <point x="598" y="12"/>
      <point x="469" y="-125"/>
      <point x="303" y="-125" type="curve" smooth="yes"/>
      <point x="163" y="-125"/>
      <point x="52" y="-40"/>
      <point x="52" y="89" type="curve"/>
      <point x="220" y="89" type="line"/>
      <point x="226" y="45"/>
      <point x="253" y="21"/>
      <point x="303" y="21" type="curve" smooth="yes"/>
      <point x="399" y="21"/>
      <point x="440" y="113"/>
      <point x="440" y="256" type="curve" smooth="yes"/>
      <point x="440" y="276"/>
      <point x="439" y="301"/>
      <point x="437" y="315" type="curve"/>
      <point x="422" y="219"/>
      <point x="350" y="170"/>
      <point x="270" y="170" type="curve" smooth="yes"/>
      <point x="140" y="170"/>
      <point x="40" y="262"/>
      <point x="40" y="388" type="curve" smooth="yes"/>
      <point x="40" y="518"/>
      <point x="146" y="618"/>
      <point x="296" y="618" type="curve" smooth="yes"/>
    </contour>
    <contour>
      <point x="296" y="479" type="line"/>
      <point x="236" y="479"/>
      <point x="204" y="436"/>
      <point x="204" y="388" type="curve" smooth="yes"/>
      <point x="204" y="337"/>
      <point x="237" y="296"/>
      <point x="298" y="296" type="curve" smooth="yes"/>
      <point x="358" y="296"/>
      <point x="390" y="337"/>
      <point x="390" y="388" type="curve" smooth="yes"/>
      <point x="390" y="436"/>
      <point x="357" y="479"/>
      <point x="296" y="479" type="curve" smooth="yes"/>
    </contour>
  </outline>
</glyph>
<glyph name="numbersign.tf" format="2">
  <advance width="600"/>
  <outline>
    <contour>
      <point x="79" y="55" type="line"/>
      <point x="230" y="55" type="line"/>
      <point x="292" y="581" type="line"/>
      <point x="141" y="581" type="line"/>
    </contour>
    <contour>
      <point x="307" y="55" type="line"/>
      <point x="457" y="55" type="line"/>
      <point x="519" y="581" type="line"/>
      <point x="369" y="581" type="line"/>
    </contour>
    <contour>
      <point x="52" y="386" type="line"/>
      <point x="560" y="386" type="line"/>
      <point x="571" y="489" type="line"/>
      <point x="63" y="489" type="line"/>
    </contour>
    <contour>
      <point x="28" y="147" type="line"/>
      <point x="536" y="147" type="line"/>
      <point x="546" y="250" type="line"/>
      <point x="37" y="250" type="line"/>
    </contour>
  </outline>
</glyph>
<glyph name="one.prop" format="2">
  <advance width="384"/>
  <outline>
    <contour>
      <point x="182" y="604" type="line"/>
      <point x="128" y="567"/>
      <point x="83" y="554"/>
      <point x="36" y="549" type="curve"/>
      <point x="36" y="397" type="line"/>
      <point x="68" y="397"/>
      <point x="100" y="401"/>
      <point x="139" y="412" type="curve"/>
      <point x="139" y="0" type="line"/>
      <point x="299" y="0" type="line"/>
      <point x="299" y="604" type="line"/>
    </contour>
  </outline>
</glyph>
<glyph name="one.tf" format="2">
  <advance width="600"/>
  <outline>
    <contour>
      <point x="103" y="0" type="line"/>
      <point x="503" y="0" type="line"/>
      <point x="503" y="120" type="line"/>
      <point x="338" y="120" type="line"/>
      <point x="383" y="75" type="line"/>
      <point x="383" y="677" type="line"/>
      <point x="266" y="677" type="line"/>
      <point x="212" y="640"/>
      <point x="167" y="627"/>
      <point x="120" y="622" type="curve"/>
      <point x="120" y="470" type="line"/>
      <point x="161" y="470"/>
      <point x="202" y="477"/>
      <point x="259" y="496" type="curve"/>
      <point x="223" y="530" type="line"/>
      <point x="223" y="75" type="line"/>
      <point x="268" y="120" type="line"/>
      <point x="103" y="120" type="line"/>
    </contour>
  </outline>
</glyph>
<glyph name="percent.tf" format="2">
  <advance width="600"/>
  <outline>
    <contour>
      <point x="138" y="686" type="curve" smooth="yes"/>
      <point x="72" y="686"/>
      <point x="5" y="652"/>
      <point x="5" y="526" type="curve" smooth="yes"/>
      <point x="5" y="400"/>
      <point x="72" y="366"/>
      <point x="138" y="366" type="curve" smooth="yes"/>
      <point x="204" y="366"/>
      <point x="272" y="400"/>
      <point x="272" y="526" type="curve" smooth="yes"/>
      <point x="272" y="652"/>
      <point x="204" y="686"/>
    </contour>
    <contour>
      <point x="138" y="588" type="curve" smooth="yes"/>
      <point x="153" y="588"/>
      <point x="169" y="578"/>
      <point x="169" y="526" type="curve" smooth="yes"/>
      <point x="169" y="474"/>
      <point x="153" y="464"/>
      <point x="138" y="464" type="curve" smooth="yes"/>
      <point x="122" y="464"/>
      <point x="107" y="474"/>
      <point x="107" y="526" type="curve" smooth="yes"/>
      <point x="107" y="578"/>
      <point x="122" y="588"/>
    </contour>
    <contour>
      <point x="7" y="0" type="line"/>
      <point x="157" y="0" type="line"/>
      <point x="593" y="671" type="line"/>
      <point x="444" y="671" type="line"/>
    </contour>
    <contour>
      <point x="461" y="304" type="curve" smooth="yes"/>
      <point x="395" y="304"/>
      <point x="328" y="270"/>
      <point x="328" y="144" type="curve" smooth="yes"/>
      <point x="328" y="18"/>
      <point x="395" y="-16"/>
      <point x="461" y="-16" type="curve" smooth="yes"/>
      <point x="527" y="-16"/>
      <point x="595" y="18"/>
      <point x="595" y="144" type="curve" smooth="yes"/>
      <point x="595" y="270"/>
      <point x="527" y="304"/>
    </contour>
    <contour>
      <point x="461" y="206" type="curve" smooth="yes"/>
      <point x="476" y="206"/>
      <point x="492" y="196"/>
      <point x="492" y="144" type="curve" smooth="yes"/>
      <point x="492" y="92"/>
      <point x="476" y="82"/>
      <point x="461" y="82" type="curve" smooth="yes"/>
      <point x="445" y="82"/>
      <point x="430" y="92"/>
      <point x="430" y="144" type="curve" smooth="yes"/>
      <point x="430" y="196"/>
      <point x="445" y="206"/>
    </contour>
  </outline>
</glyph>
<glyph name="period.tf" format="2">
  <advance width="600"/>
  <outline>
    <contour>
      <point x="192" y="94" type="curve" smooth="yes"/>
      <point x="192" y="34"/>
      <point x="236" y="-9"/>
      <point x="299" y="-9" type="curve" smooth="yes"/>
      <point x="362" y="-9"/>
      <point x="408" y="34"/>
      <point x="408" y="94" type="curve" smooth="yes"/>
      <point x="408" y="152"/>
      <point x="362" y="196"/>
      <point x="299" y="196" type="curve" smooth="yes"/>
      <point x="236" y="196"/>
      <point x="192" y="152"/>
    </contour>
  </outline>
</glyph>
<glyph name="seven.tf" format="2">
  <advance width="600"/>
  <outline>
    <contour>
      <point x="58" y="671" type="line"/>
      <point x="58" y="515" type="line"/>
      <point x="356" y="515" type="line"/>
      <point x="62" y="0" type="line"/>
      <point x="279" y="0" type="line"/>
      <point x="543" y="515" type="line"/>
      <point x="543" y="671" type="line"/>
    </contour>
  </outline>
</glyph>
<glyph name="sterling.tf" format="2">
  <advance width="600"/>
  <outline>
    <contour>
      <point x="33" y="399" type="line"/>
      <point x="33" y="295" type="line"/>
      <point x="428" y="295" type="line"/>
      <point x="428" y="399" type="line"/>
    </contour>
    <contour>
      <point x="10" y="0" type="line"/>
      <point x="320" y="0" type="line" smooth="yes"/>
      <point x="517" y="0"/>
      <point x="590" y="78"/>
      <point x="590" y="216" type="curve"/>
      <point x="414" y="216" type="line"/>
      <point x="410" y="169"/>
      <point x="387" y="146"/>
      <point x="319" y="146" type="curve" smooth="yes"/>
      <point x="10" y="146" type="line"/>
    </contour>
    <contour>
      <point x="332" y="686" type="line"/>
      <point x="208" y="686"/>
      <point x="108" y="616"/>
      <point x="108" y="457" type="curve" smooth="yes"/>
      <point x="108" y="230" type="line" smooth="yes"/>
      <point x="108" y="173"/>
      <point x="93" y="146"/>
      <point x="47" y="146" type="curve"/>
      <point x="47" y="100" type="line"/>
      <point x="211" y="100"/>
      <point x="268" y="147"/>
      <point x="268" y="242" type="curve" smooth="yes"/>
      <point x="268" y="457" type="line" smooth="yes"/>
      <point x="268" y="514"/>
      <point x="295" y="541"/>
      <point x="332" y="541" type="curve" smooth="yes"/>
      <point x="366" y="541"/>
      <point x="385" y="518"/>
      <point x="388" y="485" type="curve"/>
      <point x="545" y="485" type="line"/>
      <point x="529" y="618"/>
      <point x="460" y="686"/>
      <point x="332" y="686" type="curve" smooth="yes"/>
    </contour>
  </outline>
</glyph>
<glyph name="three.prop" format="2">
  <advance width="617"/>
  <outline>
    <contour>
      <point x="287" y="618" type="line"/>
      <point x="131" y="618"/>
      <point x="32" y="558"/>
      <point x="19" y="408" type="curve"/>
      <point x="192" y="408" type="line"/>
      <point x="192" y="448"/>
      <point x="232" y="485"/>
      <point x="290" y="485" type="curve" smooth="yes"/>
      <point x="343" y="485"/>
      <point x="377" y="454"/>
      <point x="377" y="411" type="curve" smooth="yes"/>
      <point x="377" y="362"/>
      <point x="344" y="329"/>
      <point x="290" y="329" type="curve" smooth="yes"/>
      <point x="209" y="329" type="line"/>
      <point x="209" y="203" type="line"/>
      <point x="283" y="203" type="line" smooth="yes"/>
      <point x="346" y="203"/>
      <point x="396" y="168"/>
      <point x="396" y="109" type="curve" smooth="yes"/>
      <point x="396" y="51"/>
      <point x="352" y="9"/>
      <point x="289" y="9" type="curve" smooth="yes"/>
      <point x="230" y="9"/>
      <point x="182" y="35"/>
      <point x="175" y="103" type="curve"/>
      <point x="12" y="103" type="line"/>
      <point x="12" y="-56"/>
      <point x="147" y="-125"/>
      <point x="289" y="-125" type="curve" smooth="yes"/>
      <point x="450" y="-125"/>
      <point x="556" y="-29"/>
      <point x="556" y="94" type="curve" smooth="yes"/>
      <point x="556" y="177"/>
      <point x="516" y="245"/>
      <point x="435" y="282" type="curve"/>
      <point x="499" y="310"/>
      <point x="535" y="360"/>
      <point x="535" y="430" type="curve" smooth="yes"/>
      <point x="535" y="535"/>
      <point x="443" y="618"/>
      <point x="287" y="618" type="curve" smooth="yes"/>
    </contour>
  </outline>
</glyph>
<glyph name="two.tf" format="2">
  <advance width="600"/>
  <outline>
    <contour>
      <point x="190" y="153" type="line"/>
      <point x="190" y="175"/>
      <point x="202" y="187"/>
      <point x="241" y="202" type="curve" smooth="yes"/>
      <point x="384" y="255" type="line" smooth="yes"/>
      <point x="519" y="305"/>
      <point x="570" y="372"/>
      <point x="570" y="475" type="curve" smooth="yes"/>
      <point x="570" y="603"/>
      <point x="454" y="686"/>
      <point x="313" y="686" type="curve" smooth="yes"/>
      <point x="166" y="686"/>
      <point x="41" y="617"/>
      <point x="41" y="459" type="curve"/>
      <point x="219" y="459" type="line"/>
      <point x="224" y="516"/>
      <point x="265" y="547"/>
      <point x="316" y="547" type="curve" smooth="yes"/>
      <point x="371" y="547"/>
      <point x="398" y="515"/>
      <point x="398" y="479" type="curve" smooth="yes"/>
      <point x="398" y="440"/>
      <point x="377" y="414"/>
      <point x="326" y="395" type="curve" smooth="yes"/>
      <point x="183" y="341" type="line" smooth="yes"/>
      <point x="72" y="299"/>
      <point x="30" y="239"/>
      <point x="30" y="130" type="curve" smooth="yes"/>
      <point x="30" y="0" type="line"/>
      <point x="568" y="0" type="line"/>
      <point x="568" y="146" type="line"/>
      <point x="190" y="146" type="line"/>
    </contour>
  </outline>
</glyph>
<glyph name="zero.prop" format="2">
  <advance width="610"/>
  <outline>
    <contour>
      <point x="306" y="618" type="line"/>
      <point x="154" y="618"/>
      <point x="43" y="499"/>
      <point x="43" y="301" type="curve" smooth="yes"/>
      <point x="43" y="103"/>
      <point x="154" y="-16"/>
      <point x="306" y="-16" type="curve" smooth="yes"/>
      <point x="458" y="-16"/>
      <point x="567" y="103"/>
      <point x="567" y="301" type="curve" smooth="yes"/>
      <point x="567" y="499"/>
      <point x="458" y="618"/>
      <point x="306" y="618" type="curve" smooth="yes"/>
    </contour>
    <contour>
      <point x="306" y="473" type="line"/>
      <point x="373" y="473"/>
      <point x="409" y="423"/>
      <point x="409" y="301" type="curve" smooth="yes"/>
      <point x="409" y="180"/>
      <point x="373" y="130"/>
      <point x="306" y="130" type="curve" smooth="yes"/>
      <point x="239" y="130"/>
      <point x="203" y="180"/>
      <point x="203" y="301" type="curve" smooth="yes"/>
      <point x="203" y="423"/>
      <point x="239" y="473"/>
      <point x="306" y="473" type="curve" smooth="yes"/>
    </contour>
  </outline>
</glyph>
<glyph name="zero.tf" format="2">
  <advance width="600"/>
  <outline>
    <contour>
      <point x="300" y="686" type="line"/>
      <point x="129" y="686"/>
      <point x="6" y="575"/>
      <point x="6" y="335" type="curve" smooth="yes"/>
      <point x="6" y="96"/>
      <point x="129" y="-16"/>
      <point x="300" y="-16" type="curve" smooth="yes"/>
      <point x="470" y="-16"/>
      <point x="594" y="96"/>
      <point x="594" y="335" type="curve" smooth="yes"/>
      <point x="594" y="575"/>
      <point x="470" y="686"/>
      <point x="300" y="686" type="curve" smooth="yes"/>
    </contour>
    <contour>
      <point x="300" y="541" type="line"/>
      <point x="379" y="541"/>
      <point x="430" y="470"/>
      <point x="430" y="335" type="curve" smooth="yes"/>
      <point x="430" y="200"/>
      <point x="379" y="130"/>
      <point x="300" y="130" type="curve" smooth="yes"/>
      <point x="221" y="130"/>
      <point x="170" y="200"/>
      <point x="170" y="335" type="curve" smooth="yes"/>
      <point x="170" y="470"/>
      <point x="221" y="541"/>
      <point x="300" y="541" type="curve" smooth="yes"/>
    </contour>
  </outline>
</glyph>
